<svg width="279" height="18" viewBox="0 0 279 18" fill="none" xmlns="http://www.w3.org/2000/svg">
<g clip-path="url(#clip0_1_36)">
<path d="M25.6854 0H22.589V13.4793L19.6104 11.0365H21.1081L14.8425 5.89684H13.3447L6.1535 0H1.87915V2.65827H0V3.92938H3.07395V5.19496H1.87915V17.381H4.97553V3.10593L8.38043 5.89684H9.88375L16.1438 11.0365H14.6461L22.3759 17.381H25.6854V15.6788H24.154V14.4133H27.2224V13.1477H25.6854V0Z" fill="white"/>
<path d="M30.3917 2.65826H28.8547V3.92937H31.9287V5.19495H30.3917V14.1756H28.8547V17.381H51.8701V15.4412H50.3331V14.1756H33.4881V9.38408H48.5325V6.18421H33.4881V3.2275H53.407V0.0220947H30.3917V2.65826Z" fill="white"/>
<path d="M53.407 14.1756V12.91H50.3331V14.1756H51.8701H53.407Z" fill="white"/>
<path d="M75.6314 0L68.889 6.3058L62.1409 0H57.5355L66.5835 8.46669L66.5723 8.47774H66.2413V8.46669H62.1072V9.73227H66.2413V10.9979H62.7859L55.9649 17.381H60.5758L67.7951 10.6276L72.9782 15.4688H77.5891L70.1118 8.47774H71.2L71.1888 8.46669L76.1082 3.86306V2.65827H80.2368V1.39269H78.7503L80.2368 0H75.6314Z" fill="white"/>
<path d="M79.6366 16.7344H72.608V18H79.6366V16.7344Z" fill="white"/>
<path d="M104.447 6.97452L104.469 5.19496H106.298L106.371 0H103.275V5.19496H101.446V7.00215C101.446 8.06325 101.446 9.64937 100.812 11.0365H102.641C102.428 11.5008 102.141 11.9484 101.766 12.3408C100.616 13.5566 98.6692 14.1756 96.0048 14.1756H94.0359C91.3714 14.1756 89.4306 13.5566 88.275 12.3408C87.8936 11.9484 87.6131 11.5063 87.4 11.0365H85.5713C85.0664 9.93675 84.9655 8.71538 84.943 7.73165H81.8467C81.8635 8.63801 81.9308 9.80964 82.2674 11.0365H84.096C84.427 12.2579 85.016 13.5235 86.0705 14.6233C87.8207 16.4581 90.4851 17.4031 93.991 17.4031H95.9599C99.4658 17.4031 102.13 16.4581 103.88 14.6233C104.211 14.2751 104.497 13.9103 104.744 13.5345H102.764V12.269H106.893V11.0034H104.032C104.458 9.41726 104.453 7.91403 104.453 6.98004L104.447 6.97452Z" fill="white"/>
<path d="M85.2179 5.19496H86.7661V0H83.6697V5.19496H81.841H81.0894V6.46055H85.2179V5.19496Z" fill="white"/>
<path d="M129.824 4.84125C130.015 5.06232 130.087 5.23917 130.11 5.36075H135.607V4.09517H130.149V2.82959H132.225C130.699 0.978189 127.619 0.0220947 123.053 0.0220947C116.832 0.0220947 111.565 0.348162 110.572 3.92384H112.423C112.311 4.32176 112.255 4.75283 112.255 5.23364C112.255 5.65918 112.317 6.06815 112.429 6.45501H110.578C110.757 7.06293 111.077 7.61559 111.532 8.08534C113.523 10.1191 117.483 10.2683 121.707 10.2186H124.254C126.744 10.2352 128.545 10.3789 129.504 10.9094C130.026 11.1968 130.301 11.5947 130.301 12.1529C130.301 12.5895 130.015 13.0648 129.1 13.4406C128.085 13.8606 126.29 14.1646 123.199 14.1646C119.289 14.1646 117.057 13.8938 115.52 13.2195C114.151 12.6226 113.792 12.2745 113.697 11.7771H108.951V13.0427H113.08V14.3082H111.571C112.21 15.0709 113.136 15.6236 114.314 16.1431C116.305 17.0107 118.801 17.3589 123.216 17.3589C125.993 17.3589 132.174 17.3589 133.251 13.4351C133.358 13.0537 133.414 12.6337 133.414 12.1695C133.414 11.7052 133.363 11.2852 133.268 10.8984C132.348 7.09609 127.193 7.05188 124.293 7.02977H121.724C119.991 7.05188 116.776 7.06846 114.903 6.43843H116.754C116.266 6.27816 115.868 6.07368 115.61 5.81393C115.441 5.6426 115.368 5.49339 115.368 5.24469C115.368 4.89652 115.368 4.34939 116.838 3.90727H114.987C116.26 3.52593 118.633 3.23303 123.07 3.23303C127.844 3.23303 129.381 4.34939 129.813 4.82467L129.824 4.84125Z" fill="white"/>
<path d="M171.429 16.1044H165.197V14.8388H167.042L162.65 11.2521C166.778 10.832 169.707 9.51672 169.707 5.44365H169.684C169.684 0.0220947 162.196 0.0220947 158.6 0.0220947H144.627V1.28768H148.756V2.55326H146.691V11.4123H145.272V15.1814H144.627V16.447H148.756V15.1814H148.368V11.4123H151.01H152.43H157.876L165.197 17.3976H170.189L170.15 17.3644H171.429V16.0989V16.1044ZM157.59 8.21798H149.788V3.2275H158.353C160.49 3.2275 165.937 3.2275 165.937 5.46023C165.937 6.75344 166.15 8.21798 157.585 8.21798H157.59Z" fill="white"/>
<path d="M250.37 0H247.251L239.162 13.8274L237.984 11.8655H239.162L236.161 6.86399H234.983L232.397 2.5588H227.713V12.6558H226.165V13.9214H229.262V15.187H227.713V17.381H230.81V5.98526L231.343 6.86399H232.521L235.522 11.8655H234.344L237.653 17.381H240.699L247.273 6.13448V17.381H250.37V10.3844H248.821V9.11329H251.918V7.84771H250.37V0Z" fill="white"/>
<path d="M198.006 0H194.91V6.2837H179.489H177.941V0H174.845V0.0221062H173.297V1.29321H176.393V2.5588H174.845V6.2837H176.393V9.41726H174.845V17.3534H177.941V9.46147H194.91V17.381H198.006V15.187H196.458V13.9214H199.554V12.6558H198.006V9.41726H199.554V6.2837H198.006V0Z" fill="white"/>
<path d="M219.417 0L214.24 5.71999H216.107L214.228 7.79797L206.981 0H202.684L202.707 0.0221062H200.654V1.29321H206.88V2.5588H205.057L212.596 10.6773V17.381H215.692V15.187H214.24V13.9214H217.336V12.6558H215.692V10.8486L220.331 5.71999H218.463L223.641 0H219.417Z" fill="white"/>
<path d="M233.945 0.0221062H230.877L230.86 0H227.713V0.0221062V1.29321H233.945V0.0221062Z" fill="white"/>
<path d="M279 3.2275V0.0220947H255.979V2.65826H254.448V3.92937H257.516V5.19495H255.979V14.1756H254.448V17.381H277.463V15.4412H275.926V14.1756H259.075V9.38408H274.125V6.18421H259.075V3.2275H279Z" fill="white"/>
<path d="M279 14.1756V12.91H275.926V14.1756H277.463H279Z" fill="white"/>
</g>
<defs>
<clipPath id="clip0_1_36">
<rect width="279" height="18" fill="white"/>
</clipPath>
</defs>
</svg>
